<svg width="50" height="50" viewBox="0 0 50 50" fill="none" xmlns="http://www.w3.org/2000/svg">
<circle cx="25" cy="25" r="24.5" stroke="#E5E5E5"/>
<path d="M23.8639 24.2012C24.1446 23.7643 24.3049 23.243 24.2956 22.6841C24.2708 21.1885 23.0261 20 21.5303 20H17.3542C17.1586 20 17 20.1586 17 20.3542V29.538C17 29.7336 17.1586 29.8922 17.3542 29.8922H22.0191C23.7505 29.8922 25.1847 28.5045 25.1918 26.7731C25.1962 25.712 24.67 24.7712 23.8639 24.2012ZM18.8321 21.8321H21.566C22.0611 21.8321 22.4639 22.2349 22.4639 22.73C22.4639 23.2251 22.0611 23.628 21.566 23.628H18.8321V21.8321ZM22.0598 28.0601H18.8321V25.4601H21.566H22.0597C22.7766 25.4601 23.3598 26.0433 23.3598 26.7601C23.3598 27.4769 22.7766 28.0601 22.0598 28.0601Z" fill="#0067FF"/>
<path d="M33.2185 26.1218C33.2185 23.9833 31.5331 22.2436 29.4613 22.2436C27.3896 22.2436 25.7042 23.9834 25.7042 26.1218C25.7042 28.2602 27.3896 30 29.4613 30C30.7184 30 31.8865 29.3556 32.586 28.2761C32.6732 28.1415 32.7524 28.0009 32.8227 27.856C32.8737 27.7507 32.7963 27.6283 32.6794 27.628L30.8325 27.6234C30.7916 27.6233 30.7529 27.64 30.7236 27.6685C30.3748 28.0076 29.9472 28.1679 29.4613 28.1679C28.5435 28.1679 27.7741 27.4814 27.5825 26.5662H32.8508C33.0539 26.5662 33.2185 26.4016 33.2185 26.1985V26.1218ZM29.4613 24.0757C30.1336 24.0757 30.7261 24.4441 31.0705 25.0006H27.8522C28.1966 24.4441 28.7891 24.0757 29.4613 24.0757Z" fill="#0067FF"/>
<path d="M31.0225 21.7884H27.69C27.5346 21.7884 27.4085 21.6624 27.4085 21.5069V20.6709C27.4085 20.5154 27.5346 20.3893 27.69 20.3893H31.0225C31.178 20.3893 31.304 20.5154 31.304 20.6709V21.5069C31.304 21.6624 31.178 21.7884 31.0225 21.7884Z" fill="#0067FF"/>
</svg>
