<svg width="50" height="50" viewBox="0 0 50 50" fill="none" xmlns="http://www.w3.org/2000/svg">
<circle cx="25" cy="25" r="24.5" stroke="#E5E5E5"/>
<path d="M25.5 18C21.3577 18 18 21.3581 18 25.5C18 29.6419 21.3577 33 25.5 33C29.6424 33 33.0001 29.6419 33.0001 25.5C33.0001 21.3581 29.6423 18 25.5 18ZM30.4214 21.63C31.2276 22.6538 31.7212 23.9325 31.7601 25.3242C30.0773 25.0294 28.6261 25.0204 27.3721 25.2192C27.2133 24.8545 27.0497 24.5001 26.8819 24.157C28.2267 23.6039 29.4328 22.7972 30.4214 21.63ZM29.5584 20.7338C28.6753 21.8058 27.5667 22.5436 26.3123 23.0457C25.5093 21.5579 24.6834 20.318 24.0234 19.4128C24.4974 19.297 24.9909 19.2352 25.4996 19.2352C27.0478 19.2347 28.4644 19.8004 29.5584 20.7338ZM22.8071 19.8445C23.445 20.6962 24.2939 21.93 25.1241 23.4426C23.3644 23.9259 21.3961 24.0562 19.4039 24.0619C19.8436 22.1981 21.1158 20.6531 22.8071 19.8445ZM19.2356 25.4995L19.2408 25.2969H19.2745C21.5067 25.2969 23.7229 25.1507 25.71 24.5652C25.8581 24.8666 26.0039 25.176 26.1464 25.4943C23.5322 26.2607 21.9023 27.981 20.7853 29.6179C19.8216 28.5169 19.2356 27.0755 19.2356 25.4995ZM21.6984 30.4739C22.7559 28.8811 24.2297 27.3052 26.6278 26.6433C27.188 28.0786 27.645 29.6451 27.8869 31.2904C27.1509 31.5961 26.3452 31.7648 25.5005 31.7648C24.0712 31.7648 22.7531 31.2834 21.6984 30.4739ZM29.0391 30.6661C28.7827 29.1628 28.3627 27.7289 27.8569 26.3996C28.9528 26.2603 30.2128 26.2941 31.6734 26.5627C31.3814 28.2604 30.4055 29.7272 29.0391 30.6661Z" fill="#EA4C89"/>
</svg>
