<?xml version="1.0" standalone="no"?>
<!DOCTYPE svg PUBLIC "-//W3C//DTD SVG 20010904//EN"
 "http://www.w3.org/TR/2001/REC-SVG-20010904/DTD/svg10.dtd">
<svg version="1.0" xmlns="http://www.w3.org/2000/svg"
 width="700.000000pt" height="700.000000pt" viewBox="0 0 700.000000 700.000000"
 preserveAspectRatio="xMidYMid meet">
<metadata>
Created by potrace 1.11, written by Peter Selinger 2001-2013
</metadata>
<g transform="translate(0.000000,700.000000) scale(0.100000,-0.100000)"
fill="#000000" stroke="none">
<path d="M3279 6996 c-2 -2 -43 -6 -90 -10 -47 -4 -95 -8 -105 -10 -10 -2 -41
-7 -69 -10 -48 -6 -132 -21 -185 -31 -14 -3 -38 -8 -55 -10 -44 -8 -292 -74
-345 -91 -230 -78 -506 -200 -668 -296 -40 -24 -80 -47 -90 -53 -138 -80 -394
-271 -526 -395 -136 -126 -270 -268 -368 -390 -54 -67 -188 -247 -188 -253 0
-2 -22 -37 -48 -78 -74 -113 -252 -448 -252 -474 0 -3 -11 -28 -24 -57 -48
-107 -126 -342 -162 -488 -18 -74 -65 -316 -70 -360 -3 -30 -8 -68 -10 -85
-26 -188 -25 -674 1 -813 1 -9 6 -42 9 -72 19 -165 79 -426 140 -612 68 -203
169 -436 257 -591 23 -40 50 -88 61 -107 11 -19 33 -54 49 -77 16 -23 29 -44
29 -47 0 -22 245 -337 343 -443 204 -218 461 -438 653 -560 355 -226 713 -386
1049 -469 238 -59 381 -83 590 -101 116 -10 472 -10 595 0 476 40 1004 201
1395 425 33 19 69 40 80 46 265 147 613 433 830 680 33 38 67 77 76 86 27 29
173 221 216 285 218 323 399 723 492 1090 29 114 69 321 77 396 3 35 8 67 10
70 10 18 19 212 18 419 0 213 -5 308 -19 410 -3 19 -7 51 -10 70 -8 69 -16
117 -36 210 -167 790 -566 1460 -1184 1986 -70 60 -307 234 -356 262 -19 11
-72 43 -119 71 -320 193 -795 369 -1147 425 -33 5 -116 19 -123 21 -3 1 -41 5
-85 10 -44 4 -89 10 -100 12 -25 4 -532 13 -536 9z"/>
</g>
</svg>
